<?xml version="1.0" encoding="UTF-8" standalone="no"?>
<!-- Created with Inkscape (http://www.inkscape.org/) -->

<svg
   xmlns:dc="http://purl.org/dc/elements/1.1/"
   xmlns:cc="http://creativecommons.org/ns#"
   xmlns:rdf="http://www.w3.org/1999/02/22-rdf-syntax-ns#"
   xmlns:svg="http://www.w3.org/2000/svg"
   xmlns="http://www.w3.org/2000/svg"
   xmlns:sodipodi="http://sodipodi.sourceforge.net/DTD/sodipodi-0.dtd"
   xmlns:inkscape="http://www.inkscape.org/namespaces/inkscape"
   width="379.54099"
   height="140.32001"
   viewBox="0 0 379.541 140.32001"
   id="svg9791"
   version="1.1"
   inkscape:version="0.91 r13725"
   sodipodi:docname="altibox.svg">
  <defs
     id="defs9793">
    <clipPath
       clipPathUnits="userSpaceOnUse"
       id="clipPath5479">
      <path
         d="m 0,0 2834.65,0 0,1048 L 0,1048 0,0 Z"
         id="path5481"
         inkscape:connector-curvature="0" />
    </clipPath>
    <clipPath
       clipPathUnits="userSpaceOnUse"
       id="clipPath5479-1">
      <path
         d="m 0,0 2834.65,0 0,1048 L 0,1048 0,0 Z"
         id="path5481-7"
         inkscape:connector-curvature="0" />
    </clipPath>
  </defs>
  <sodipodi:namedview
     id="base"
     pagecolor="#ffffff"
     bordercolor="#666666"
     borderopacity="1.0"
     inkscape:pageopacity="0.0"
     inkscape:pageshadow="2"
     inkscape:zoom="0.49497475"
     inkscape:cx="-319.28571"
     inkscape:cy="188.62915"
     inkscape:document-units="px"
     inkscape:current-layer="layer1"
     showgrid="false"
     inkscape:window-width="1920"
     inkscape:window-height="1017"
     inkscape:window-x="1592"
     inkscape:window-y="-8"
     inkscape:window-maximized="1"
     showborder="true"
     units="px" />
  <metadata
     id="metadata9796">
    <rdf:RDF>
      <cc:Work
         rdf:about="">
        <dc:format>image/svg+xml</dc:format>
        <dc:type
           rdf:resource="http://purl.org/dc/dcmitype/StillImage" />
        <dc:title></dc:title>
      </cc:Work>
    </rdf:RDF>
  </metadata>
  <g
     inkscape:label="Layer 1"
     inkscape:groupmode="layer"
     id="layer1"
     transform="translate(0,-912.04234)">
    <g
       style="display:inline"
       id="g5473"
       transform="matrix(0.13389345,0,0,-0.13389345,0,1052.3623)">
      <g
         id="g5475">
        <g
           id="g5477"
           clip-path="url(#clipPath5479-1)">
          <path
             d="M 524.16,0 C 234.676,0 0,234.672 0,524.16 c 0,289.485 234.676,524.16 524.16,524.16 l 1786.32,0 c 289.49,0 524.17,-234.675 524.17,-524.16 C 2834.65,234.672 2599.97,0 2310.48,0 L 524.16,0"
             style="fill:#333333;fill-opacity:1;fill-rule:nonzero;stroke:none"
             id="path5483"
             inkscape:connector-curvature="0" />
          <path
             d="m 769.199,292.898 90.918,0 0,503.613 -90.918,0 0,-503.613 z"
             style="fill:#eeeeee;fill-opacity:1;fill-rule:nonzero;stroke:none"
             id="path5485"
             inkscape:connector-curvature="0" />
          <path
             d="m 1189.77,292.898 90.9219,0 0,388.957 -90.9219,0 0,-388.957 z"
             style="fill:#eeeeee;fill-opacity:1;fill-rule:nonzero;stroke:none"
             id="path5487"
             inkscape:connector-curvature="0" />
          <path
             d="m 1447.73,487.379 c 0,-16.582 2.64,-32.414 7.94,-47.5 5.3,-15.086 12.91,-28.199 22.83,-39.344 9.92,-11.152 21.96,-20.047 36.1,-26.707 14.12,-6.664 30.17,-9.988 48.11,-9.988 17.12,0 32.67,3.324 46.67,9.988 13.99,6.66 26.04,15.555 36.09,26.707 10.05,11.145 17.72,24.258 23.03,39.344 5.3,15.086 7.96,30.918 7.96,47.5 0,16.57 -2.66,32.41 -7.96,47.496 -5.31,15.086 -12.98,28.191 -23.03,39.344 -10.05,11.144 -22.01,20.039 -35.87,26.707 -13.87,6.656 -29.51,9.988 -46.89,9.988 -17.94,0 -33.99,-3.332 -48.11,-9.988 -14.14,-6.668 -26.18,-15.563 -36.1,-26.707 -9.92,-11.153 -17.53,-24.199 -22.83,-39.141 -5.3,-14.949 -7.94,-30.848 -7.94,-47.699 z m 0,-194.481 -90.92,0 0,503.614 90.92,0 0,-158.27 c 29.18,38.082 85.54,53.805 120.28,53.805 29.61,0 56.59,-5.442 80.92,-16.309 24.32,-10.871 45.25,-25.754 62.78,-44.644 17.53,-18.899 31.21,-40.707 40.99,-65.438 9.79,-24.734 14.68,-50.828 14.68,-78.277 0,-27.727 -4.89,-53.82 -14.68,-78.281 -9.78,-24.465 -23.46,-46.215 -40.99,-65.235 -17.53,-19.027 -38.51,-33.984 -62.98,-44.847 -24.46,-10.868 -51.37,-16.309 -80.72,-16.309 l 0,0.133 c -34.74,0 -91.1,15.723 -120.28,53.805 l 0,-43.747"
             style="fill:#eeeeee;fill-opacity:1;fill-rule:nonzero;stroke:none"
             id="path5489-3"
             inkscape:connector-curvature="0" />
          <path
             d="m 2186.53,292.898 127.21,196.11 -124.36,192.847 105.19,0 71.76,-121.906 71.76,121.906 105.19,0 -124.35,-192.847 126.79,-196.11 -105.19,0 -74.2,125.168 -74.61,-125.168 -105.19,0"
             style="fill:#eeeeee;fill-opacity:1;fill-rule:nonzero;stroke:none"
             id="path5491-3"
             inkscape:connector-curvature="0" />
          <path
             d="m 2000.36,374.105 c -64.02,0 -115.92,51.899 -115.92,115.922 0,64.02 51.9,115.922 115.92,115.922 64.02,0 115.92,-51.902 115.92,-115.922 0,-64.023 -51.9,-115.922 -115.92,-115.922 z m 0,317.942 c -111.57,0 -202.02,-90.445 -202.02,-202.02 0,-111.574 90.45,-202.019 202.02,-202.019 111.57,0 202.02,90.445 202.02,202.019 0,111.575 -90.45,202.02 -202.02,202.02"
             style="fill:#eeeeee;fill-opacity:1;fill-rule:nonzero;stroke:none"
             id="path5493"
             inkscape:connector-curvature="0" />
          <path
             d="m 968.34,410.016 c 0,-67.555 50.49,-117.118 112.22,-117.118 l 38.93,0 0,80.032 -16.33,0 c -24.22,0 -43.86,19.961 -43.86,44.582 l 0,188.508 60.19,0 0,75.835 -60.19,0 0,114.657 -90.913,0 0,-114.657 -59.711,0 0,-75.835 59.711,0 0,-181.024 -0.047,-14.98"
             style="fill:#eeeeee;fill-opacity:1;fill-rule:nonzero;stroke:none"
             id="path5495"
             inkscape:connector-curvature="0" />
          <path
             d="m 1172.35,793.637 c 0,-34.731 28.15,-62.883 62.88,-62.883 34.73,0 62.88,28.152 62.88,62.883 0,34.726 -28.15,62.883 -62.88,62.883 -34.73,0 -62.88,-28.157 -62.88,-62.883"
             style="fill:#eeeeee;fill-opacity:1;fill-rule:nonzero;stroke:none"
             id="path5497"
             inkscape:connector-curvature="0" />
          <path
             d="m 488.008,692.047 c 0.043,0 0.09,-0.004 0.09,-0.004 l 0.195,0.004 -0.285,0"
             style="fill:#ffffff;fill-opacity:1;fill-rule:nonzero;stroke:none"
             id="path5499"
             inkscape:connector-curvature="0" />
          <path
             d="m 488.293,282.707 -0.152,0.004 c 0,0 -0.09,-0.004 -0.133,-0.004 l 0.285,0"
             style="fill:#ffffff;fill-opacity:1;fill-rule:nonzero;stroke:none"
             id="path5501"
             inkscape:connector-curvature="0" />
          <path
             d="m 600.223,439.879 c -5.571,-15.086 -13.321,-28.199 -23.239,-39.344 -9.933,-11.152 -22.015,-20.047 -36.289,-26.707 -14.269,-6.664 -29.98,-9.988 -47.101,-9.988 -17.125,0 -32.672,3.324 -46.672,9.988 -14.012,6.66 -26.039,15.555 -36.094,26.707 -10.058,11.145 -17.723,24.258 -23.023,39.344 -5.301,15.086 -7.961,30.918 -7.961,47.5 0,16.851 2.66,32.75 7.961,47.699 5.3,14.945 12.965,27.988 23.023,39.141 10.055,11.144 22.082,20.039 36.094,26.707 14,6.66 29.547,9.988 46.672,9.988 17.121,0 32.832,-3.328 47.101,-9.988 14.274,-6.668 26.356,-15.563 36.289,-26.707 9.918,-11.153 17.668,-24.258 23.239,-39.344 5.558,-15.086 8.343,-30.926 8.343,-47.496 0,-16.582 -2.785,-32.414 -8.343,-47.5 z m 8.343,241.976 0,-43.613 c -29.14,38.035 -85.679,53.766 -120.425,53.801 -29.297,-0.02 -56.157,-5.457 -80.575,-16.305 -24.464,-10.871 -45.445,-25.754 -62.976,-44.644 -17.531,-18.899 -31.203,-40.77 -40.988,-65.641 -9.786,-24.871 -14.68,-50.902 -14.68,-78.074 0,-27.727 4.894,-53.82 14.68,-78.281 9.785,-24.465 23.457,-46.215 40.988,-65.235 17.531,-19.027 38.461,-33.984 62.785,-44.847 24.27,-10.848 51.199,-16.289 80.766,-16.305 34.746,0.035 91.285,15.766 120.425,53.801 l 0,-43.614 90.922,0 0,388.957 -90.922,0"
             style="fill:#eeeeee;fill-opacity:1;fill-rule:nonzero;stroke:none"
             id="path5503-0"
             inkscape:connector-curvature="0" />
        </g>
      </g>
    </g>
  </g>
</svg>
